/* XPM */
static char * stop_xpm[] = {
"32 32 82 1",
" 	c None",
".	c #000000",
"+	c #FFFFE3",
"@	c #F4F4F4",
"#	c #EFE1C0",
"$	c #E6D2AA",
"%	c #E1E1E1",
"&	c #E1C88D",
"*	c #DCC387",
"=	c #DEDFE1",
"-	c #BCA678",
";	c #A8946B",
">	c #B5B6BA",
",	c #998763",
"'	c #847556",
")	c #6B5E45",
"!	c #707172",
"~	c #878787",
"{	c #9C9D9F",
"]	c #ABAAA9",
"^	c #B7B8BA",
"/	c #BBBBBC",
"(	c #C4C5C8",
"_	c #C9C9C9",
":	c #898883",
"<	c #C5C5C5",
"[	c #B52222",
"}	c #F73333",
"|	c #F4A6A6",
"1	c #C5C3C2",
"2	c #EA3131",
"3	c #B7B5B1",
"4	c #CFCFD0",
"5	c #C8C8C8",
"6	c #EDEFF3",
"7	c #EBEBEB",
"8	c #DD2E2E",
"9	c #BDBCBA",
"0	c #CACBCE",
"a	c #CACACB",
"b	c #DDDEDF",
"c	c #D5D5D5",
"d	c #F2F2F2",
"e	c #D12B2B",
"f	c #C3C1BE",
"g	c #CFD0D3",
"h	c #AEAEAF",
"i	c #C42727",
"j	c #B51212",
"k	c #CECCC9",
"l	c #919192",
"m	c #868787",
"n	c #8E0B0B",
"o	c #840A0A",
"p	c #686A6C",
"q	c #BCBDBF",
"r	c #D6D7D8",
"s	c #B1B1B2",
"t	c #BCBCBC",
"u	c #D2D3D6",
"v	c #E2E3E4",
"w	c #C1C1C1",
"x	c #D8DADE",
"y	c #E1E1E2",
"z	c #D7D7D7",
"A	c #BFBFBF",
"B	c #C3C4C5",
"C	c #E2E5E9",
"D	c #A50E0E",
"E	c #9B0D0D",
"F	c #DEDEDF",
"G	c #D8D8D8",
"H	c #AFB0B2",
"I	c #C3C3C3",
"J	c #CECECF",
"K	c #EAEDF1",
"L	c #E9EAEC",
"M	c #A8A9AC",
"N	c #D7D7D8",
"O	c #F0F2F7",
"P	c #F7EAEA",
"Q	c #D1D2D5",
"               ..               ",
"              .+@.              ",
"             .+#$%.             ",
"            .+#$&*=.            ",
"           .+#$&*-;>.           ",
"          .+#$&*-;,').          ",
"         .+#$&*-;,')!~.         ",
"        .+#$&*-;,')!~{].        ",
"       .+#$&*-;,')!~{]^/.       ",
"      .+#$&*-;,')!~{]^/(_.      ",
"     .+#$&*-;,')!:{]^/(_<<.     ",
"    .+#$&*-;,')[}|]^/(_<<<1.    ",
"   .+#$&*-;,')[}2}|3(_<45<67.   ",
"  .+#$&*-;,')[}228}|9045a6bcd.  ",
" .+#$&*-;,')[}2288ee|fga6bcchh. ",
".+#$&*-;,')[}2288eeij|k6bcchhlm.",
".#$&*-;,')[}2288eeijno6bcchhlmp.",
" .&*-;,')q|228eeeijno6brchhlmp. ",
"  .-;,')stu|8eee[jno6bvchhlmp.  ",
"   .,')ttwwx|j[[jno6byzhhlmp.   ",
"    .)ttwwABC|DEno6bFGHhlmp.    ",
"     .twwBBIJK|EE6bLzHMlmp.     ",
"      .wBBJJNNOP6byzHMlmp.      ",
"       .BJJNNQQ6byzHMlmp.       ",
"        .JNNQQ6byzHMlmp.        ",
"         .NQQ6byzHMlmp.         ",
"          .Q6byzHMlmp.          ",
"           .byzHMlmp.           ",
"            .zHMlmp.            ",
"             .Mlmp.             ",
"              .mp.              ",
"               ..               "};
