/* XPM */
static char * go_xpm[] = {
"32 32 12 1",
" 	c None",
".	c #000000",
"+	c #F7E9CF",
"@	c #EFD7AC",
"#	c #EFCD92",
"$	c #EFC67F",
"%	c #EFBE69",
"&	c #EFB653",
"*	c #EDAB3B",
"=	c #EDA425",
"-	c #ED9D12",
";	c #EA9502",
"                                ",
"                                ",
"                                ",
"                                ",
"             .                  ",
"             ..                 ",
"             .+.                ",
"             .+@.               ",
"             .+@#.              ",
"             .+@#$.             ",
"             .+@#$%.            ",
"             .+@#$%&.           ",
"             .+@#$%&*.          ",
"             .+@#$%&*=.         ",
"             .+@#$%&*=-.        ",
"             .+@#$%&*=-;.       ",
"             .+@#$%&*=-.        ",
"             .+@#$%&*=.         ",
"             .+@#$%&*.          ",
"             .+@#$%&.           ",
"             .+@#$%.            ",
"             .+@#$.             ",
"             .+@#.              ",
"             .+@.               ",
"             .+.                ",
"             ..                 ",
"             .                  ",
"                                ",
"                                ",
"                                ",
"                                ",
"                                "};
