/* XPM */
static char * filenew_xpm[] = {
"32 32 98 2",
"  	c None",
". 	c #000000",
"+ 	c #FFFFFF",
"@ 	c #FEFEFE",
"# 	c #FCFCFC",
"$ 	c #FAFAFA",
"% 	c #F8F8F8",
"& 	c #F7F7F7",
"* 	c #F5F5F5",
"= 	c #F4F4F4",
"- 	c #F2F2F2",
"; 	c #F0F0F0",
"> 	c #EEEEEE",
", 	c #EDEDED",
"' 	c #EAEAEA",
") 	c #E9E9E9",
"! 	c #E7E7E7",
"~ 	c #FBFBFB",
"{ 	c #F9F9F9",
"] 	c #F6F6F6",
"^ 	c #F1F1F1",
"/ 	c #EFEFEF",
"( 	c #EBEBEB",
"_ 	c #FDFDFD",
": 	c #FAFAF9",
"< 	c #F7F6F7",
"[ 	c #F3F3F3",
"} 	c #ECEBEB",
"| 	c #E8E8E8",
"1 	c #FDFEFD",
"2 	c #ECECEC",
"3 	c #FBFAFB",
"4 	c #F9F8F9",
"5 	c #FAFBFB",
"6 	c #F4F3F4",
"7 	c #ECEBEC",
"8 	c #F2F3F3",
"9 	c #F9F8F8",
"0 	c #FEFEFF",
"a 	c #FFFEFF",
"b 	c #FDFCFD",
"c 	c #FAFAFB",
"d 	c #E6E6E6",
"e 	c #FEFEFD",
"f 	c #FDFEFE",
"g 	c #FAFBFA",
"h 	c #EEEFEF",
"i 	c #F5F4F5",
"j 	c #EDEDEE",
"k 	c #EDECED",
"l 	c #E5E5E5",
"m 	c #F5F5F4",
"n 	c #E5E6E5",
"o 	c #E4E3E4",
"p 	c #F6F7F7",
"q 	c #F6F5F5",
"r 	c #E2E2E2",
"s 	c #F5F4F4",
"t 	c #EFEEEF",
"u 	c #EAEBEA",
"v 	c #E3E3E3",
"w 	c #EFEFF0",
"x 	c #E4E4E4",
"y 	c #E1E1E1",
"z 	c #E7E6E7",
"A 	c #E0E0E0",
"B 	c #EAE9EA",
"C 	c #E3E2E2",
"D 	c #E2E2E1",
"E 	c #DEDEDE",
"F 	c #ECEDED",
"G 	c #E2E3E2",
"H 	c #DFDEDF",
"I 	c #E1E2E1",
"J 	c #DEDFDF",
"K 	c #DCDCDC",
"L 	c #E7E6E6",
"M 	c #DFDFDE",
"N 	c #DBDBDB",
"O 	c #E7E8E8",
"P 	c #E8E8E7",
"Q 	c #E4E4E5",
"R 	c #E0E0DF",
"S 	c #DADADA",
"T 	c #E6E5E6",
"U 	c #E4E5E4",
"V 	c #DFDFDF",
"W 	c #DDDDDD",
"X 	c #DBDBDA",
"Y 	c #D9D9D9",
"Z 	c #E4E4E3",
"` 	c #E3E2E3",
" .	c #E1E2E2",
"..	c #D8D8D8",
"+.	c #D7D8D7",
"@.	c #D7D7D7",
"#.	c #E0DFE0",
"$.	c #D6D6D6",
"                                                                ",
"        . . . . . . . . . . . . . . . . . . . . . . . .         ",
"        . + + + + + + + @ # # $ % & * = - ; > , ' ) ! .         ",
"        . + + + + + + + + @ # ~ { % ] * - ^ / , ( ) ! .         ",
"        . + + + + + + + + + _ # : % < * [ ^ / , } ) | .         ",
"        . + + + + + + + + + 1 # $ % & * = ^ ; , 2 ) | .         ",
"        . + + + + + + + + + @ # 3 4 & * = ^ ; , 2 ) | .         ",
"        . + + + + + + + + + @ # 5 { & * = ^ ; , 2 ) | .         ",
"        . + + + + + + + + + @ # $ % & * 6 ^ ; , 2 ) | .         ",
"        . + + + + + + + + + _ # $ % & * [ ^ / , 7 ) | .         ",
"        . + + + + + + + + @ # ~ { % ] * 8 ^ / , ( ) ! .         ",
"        . + + + + + + + @ _ # $ 9 & * = - ^ > , ' ) ! .         ",
"        . 0 + + + + a @ b # c { % ] * [ ^ ; , 2 ' | d .         ",
"        . _ _ e f _ _ # # g { % & * = - ^ h , ( ) | d .         ",
"        . # # # # # # ~ $ { % & * i 8 ^ ; j k ' ) ! l .         ",
"        . { $ $ $ $ { { % % & * * [ ^ ; > , ( ) | d l .         ",
"        . % % % % % % % & ] * m [ ^ ^ / , 2 ' ) ! n o .         ",
"        . ] ] & & p ] q * * = - ^ ^ / , 2 ' ) | d l r .         ",
"        . * * * * * * s = [ - ^ ; t , 2 u ) | d l v r .         ",
"        . [ [ [ [ [ [ - ^ ^ ^ w > , 2 u ) | d l x r y .         ",
"        . ^ ^ ^ ^ ^ ^ ^ ; / > , , 2 ' ) | z d x r y A .         ",
"        . / / / w / / > > , , 2 ( B ) | d d x C D A E .         ",
"        . > , , , , , , F 2 ( ' ) ) ! d l x G r A H E .         ",
"        . ( ( } ( ( ( u ' ) ) ) | d d l o r I A J E K .         ",
"        . ' ) ) ) ) ) ) ) | ! L d l x v r y A M E K N .         ",
"        . | ! O P ! ! ! d d d l Q v r r y R E E K N S .         ",
"        . d d d d d T l l U x v r r y A V E W K X S Y .         ",
"        . l o x x Z v v ` r r  .y A V E E W N S S Y ...         ",
"        . v r r r r r  .y y A A V E E W K N S S Y +.@..         ",
"        . A A A A A A #.V J E E E W K N S S Y ..@.@.$..         ",
"        . . . . . . . . . . . . . . . . . . . . . . . .         ",
"                                                                "};
