/* XPM */
static char * find_xpm[] = {
"32 32 498 2",
"  	c None",
". 	c #F9F2D0",
"+ 	c #FFFFE2",
"@ 	c #E4D296",
"# 	c #FFFFFB",
"$ 	c #F4EBBC",
"% 	c #C8AE5B",
"& 	c #FFFAD4",
"* 	c #DDC56B",
"= 	c #B4921B",
"- 	c #FFFFFC",
"; 	c #FFF9D0",
"> 	c #F7E5AE",
", 	c #D4B737",
"' 	c #B08A03",
") 	c #FFFFFF",
"! 	c #FCFADC",
"~ 	c #F4E2AB",
"{ 	c #ECD58D",
"] 	c #CEB127",
"^ 	c #A47D00",
"/ 	c #FFF7D1",
"( 	c #EDDDAA",
"_ 	c #D2B95D",
": 	c #C6A900",
"< 	c #C5A404",
"[ 	c #AB8800",
"} 	c #906400",
"| 	c #EEE4BF",
"1 	c #DECB91",
"2 	c #C1A750",
"3 	c #B18E11",
"4 	c #AF8B0E",
"5 	c #A67F14",
"6 	c #976F17",
"7 	c #956F22",
"8 	c #AC8F82",
"9 	c #B49281",
"0 	c #AD958C",
"a 	c #9D8271",
"b 	c #967E6E",
"c 	c #836D5C",
"d 	c #867163",
"e 	c #826E5D",
"f 	c #7C6752",
"g 	c #826146",
"h 	c #826047",
"i 	c #8B6342",
"j 	c #BD9B80",
"k 	c #FAF5ED",
"l 	c #FDF9EF",
"m 	c #FFFBF1",
"n 	c #FFFFF6",
"o 	c #FEFBF8",
"p 	c #FAF6F3",
"q 	c #EDECE7",
"r 	c #B0A590",
"s 	c #BBA7A4",
"t 	c #AC958F",
"u 	c #A58F84",
"v 	c #AF8F7B",
"w 	c #968475",
"x 	c #937E6C",
"y 	c #7A706A",
"z 	c #695F57",
"A 	c #6E6662",
"B 	c #68615A",
"C 	c #6D6052",
"D 	c #735F4F",
"E 	c #746D63",
"F 	c #938374",
"G 	c #C6B7AC",
"H 	c #D1C0B1",
"I 	c #D1BEA6",
"J 	c #D0C1A8",
"K 	c #D4C7AD",
"L 	c #D3C8B1",
"M 	c #C9C2AC",
"N 	c #CAC2AB",
"O 	c #B1A692",
"P 	c #837253",
"Q 	c #AC8B77",
"R 	c #AC8874",
"S 	c #988275",
"T 	c #AB927E",
"U 	c #98826F",
"V 	c #85796B",
"W 	c #7C705D",
"X 	c #4A483F",
"Y 	c #443F36",
"Z 	c #32342D",
"` 	c #34372E",
" .	c #3D4338",
"..	c #41473D",
"+.	c #494D46",
"@.	c #494A43",
"#.	c #52524C",
"$.	c #878074",
"%.	c #9E8B7C",
"&.	c #A58970",
"*.	c #A8957B",
"=.	c #AF9C81",
"-.	c #B3A386",
";.	c #B2A38A",
">.	c #B4AB91",
",.	c #BAB097",
"'.	c #9B9077",
").	c #78643A",
"!.	c #9F7E6A",
"~.	c #8D7865",
"{.	c #856C56",
"].	c #615344",
"^.	c #3D3734",
"/.	c #000000",
"(.	c #08090A",
"_.	c #0E111A",
":.	c #11140E",
"<.	c #23232A",
"[.	c #312B2D",
"}.	c #242723",
"|.	c #2A2B2B",
"1.	c #1B1A17",
"2.	c #171510",
"3.	c #161611",
"4.	c #080D10",
"5.	c #3C433C",
"6.	c #59554C",
"7.	c #7D6B59",
"8.	c #97775B",
"9.	c #9B8365",
"0.	c #A08D72",
"a.	c #AA9B85",
"b.	c #B6AC93",
"c.	c #B9B198",
"d.	c #9C9065",
"e.	c #76630E",
"f.	c #987659",
"g.	c #675C51",
"h.	c #4B4436",
"i.	c #322C21",
"j.	c #181915",
"k.	c #090E07",
"l.	c #040923",
"m.	c #0D0741",
"n.	c #02030E",
"o.	c #234484",
"p.	c #C9D6F8",
"q.	c #D5D4D4",
"r.	c #D0D1D3",
"s.	c #D6CACA",
"t.	c #B59D90",
"u.	c #815D40",
"v.	c #271402",
"w.	c #000800",
"x.	c #0F181B",
"y.	c #5B4B43",
"z.	c #977B5F",
"A.	c #987754",
"B.	c #978265",
"C.	c #A3957C",
"D.	c #B3AA92",
"E.	c #BAB098",
"F.	c #9C8F68",
"G.	c #78640E",
"H.	c #706258",
"I.	c #423B2E",
"J.	c #090806",
"K.	c #000011",
"L.	c #23224F",
"M.	c #CDCBC2",
"N.	c #585464",
"O.	c #3C66B0",
"P.	c #13A24C",
"Q.	c #1FA5BB",
"R.	c #C1DBF9",
"S.	c #FEEFEB",
"T.	c #F1C1A2",
"U.	c #CF8856",
"V.	c #86522D",
"W.	c #1C0000",
"X.	c #240E04",
"Y.	c #7A523C",
"Z.	c #A27448",
"`.	c #9C7B55",
" +	c #9C8D77",
".+	c #AFA691",
"++	c #BBB299",
"@+	c #A19571",
"#+	c #806D10",
"$+	c #130F0D",
"%+	c #080409",
"&+	c #32332A",
"*+	c #2D8757",
"=+	c #0D7046",
"-+	c #3E368E",
";+	c #F4F2EA",
">+	c #1A100D",
",+	c #5591D9",
"'+	c #3EFA9E",
")+	c #189CB9",
"!+	c #B7CBEE",
"~+	c #FFFAFE",
"{+	c #F5E4E6",
"]+	c #ECAF8D",
"^+	c #EEA263",
"/+	c #BD723F",
"(+	c #791800",
"_+	c #971600",
":+	c #B46226",
"<+	c #A57749",
"[+	c #958269",
"}+	c #ABA28D",
"|+	c #BAB29C",
"1+	c #A39677",
"2+	c #837110",
"3+	c #605E5E",
"4+	c #424034",
"5+	c #8D5F36",
"6+	c #B9855F",
"7+	c #9DA097",
"8+	c #7EB2B6",
"9+	c #3B96CE",
"0+	c #375E76",
"a+	c #8F999B",
"b+	c #043D51",
"c+	c #53FCCD",
"d+	c #6BBCE8",
"e+	c #B6C7E9",
"f+	c #FFF8F8",
"g+	c #FAEDF0",
"h+	c #F2D6CD",
"i+	c #ECAF85",
"j+	c #F9C9A2",
"k+	c #C27638",
"l+	c #B16319",
"m+	c #C18C5F",
"n+	c #89624A",
"o+	c #41322E",
"p+	c #48341E",
"q+	c #6E5A1D",
"r+	c #766200",
"s+	c #7D6A00",
"t+	c #A48976",
"u+	c #AB815F",
"v+	c #C8885A",
"w+	c #CB9268",
"x+	c #C9AA93",
"y+	c #91A1A3",
"z+	c #6F97B2",
"A+	c #3DA3E0",
"B+	c #229799",
"C+	c #0F5C25",
"D+	c #23D883",
"E+	c #4EF9D5",
"F+	c #98E0EE",
"G+	c #D1E9F4",
"H+	c #FEF5F6",
"I+	c #F7E7EA",
"J+	c #F6E0DE",
"K+	c #F1CBBE",
"L+	c #F4D8D0",
"M+	c #E8B899",
"N+	c #B5763B",
"O+	c #C5A99D",
"P+	c #97857C",
"Q+	c #716B6C",
"R+	c #666365",
"S+	c #8F7C5D",
"T+	c #A29456",
"U+	c #A5995A",
"V+	c #AD7D60",
"W+	c #BB8C70",
"X+	c #B88C73",
"Y+	c #B5825D",
"Z+	c #C39473",
"`+	c #CAAFA5",
" @	c #A4BABE",
".@	c #93E5FB",
"+@	c #23CECC",
"@@	c #24F0A7",
"#@	c #4DFFA5",
"$@	c #70F5DB",
"%@	c #BBF0F3",
"&@	c #F7F3F5",
"*@	c #FFFCFD",
"=@	c #FCEAED",
"-@	c #F2D1C3",
";@	c #EECCC9",
">@	c #ECC8C3",
",@	c #EFD6D8",
"'@	c #EED0CF",
")@	c #D5AA91",
"!@	c #C3B1AD",
"~@	c #C1BDBD",
"{@	c #CBCCCD",
"]@	c #E2E4E6",
"^@	c #F2F4F9",
"/@	c #F2F5FD",
"(@	c #C8C8C8",
"_@	c #7E5845",
":@	c #9B7C6E",
"<@	c #AA8776",
"[@	c #BD937A",
"}@	c #D1B5A6",
"|@	c #C3BBA6",
"1@	c #F8F2E9",
"2@	c #C6C0DE",
"3@	c #B3D2F8",
"4@	c #AFF3FD",
"5@	c #B7DFF4",
"6@	c #F3F3F9",
"7@	c #FFF6FA",
"8@	c #F2D9D7",
"9@	c #E5B8A4",
"0@	c #E5A491",
"a@	c #E5AE91",
"b@	c #DD9663",
"c@	c #D19052",
"d@	c #B08565",
"e@	c #958782",
"f@	c #8D8988",
"g@	c #979697",
"h@	c #B0B0B0",
"i@	c #BFBFBF",
"j@	c #ABABAB",
"k@	c #838383",
"l@	c #8E6B5C",
"m@	c #A38377",
"n@	c #997968",
"o@	c #B4896F",
"p@	c #AB8775",
"q@	c #CEA188",
"r@	c #DAAD99",
"s@	c #CF9777",
"t@	c #DDAB90",
"u@	c #D8B0A0",
"v@	c #DDB7A6",
"w@	c #D9B1A1",
"x@	c #D9AF99",
"y@	c #D3A584",
"z@	c #C48D62",
"A@	c #BE7C43",
"B@	c #B47436",
"C@	c #B2723A",
"D@	c #AE7746",
"E@	c #A07557",
"F@	c #847571",
"G@	c #787375",
"H@	c #7D7F7E",
"I@	c #939494",
"J@	c #ABACAC",
"K@	c #B7B7B7",
"L@	c #9B9B9B",
"M@	c #787878",
"N@	c #7A6660",
"O@	c #806659",
"P@	c #866D64",
"Q@	c #85614F",
"R@	c #B08D7D",
"S@	c #B19281",
"T@	c #A3816B",
"U@	c #C19072",
"V@	c #AA7449",
"W@	c #A47351",
"X@	c #9E6C44",
"Y@	c #AA764D",
"Z@	c #A67652",
"`@	c #8B6446",
" #	c #8E6549",
".#	c #88664D",
"+#	c #906B50",
"@#	c #8A705E",
"##	c #7F736B",
"$#	c #7B7879",
"%#	c #7E7E7F",
"&#	c #8F9090",
"*#	c #A4A4A4",
"=#	c #B6B6B6",
"-#	c #BEBEBE",
";#	c #A3A3A3",
">#	c #7E7E7E",
",#	c #695C56",
"'#	c #ACA3A3",
")#	c #C6BFBD",
"!#	c #AEA39E",
"~#	c #9A8780",
"{#	c #8E7365",
"]#	c #866B5F",
"^#	c #8F6F5C",
"/#	c #94735D",
"(#	c #987B67",
"_#	c #8B6B57",
":#	c #79685F",
"<#	c #786C65",
"[#	c #78706C",
"}#	c #797675",
"|#	c #7B7B7B",
"1#	c #838485",
"2#	c #909191",
"3#	c #BCBCBC",
"4#	c #C2C2C2",
"5#	c #A5A5A5",
"6#	c #818181",
"7#	c #EEEEEE",
"8#	c #D2D3D2",
"9#	c #AAA9A9",
"0#	c #8F8D8B",
"a#	c #898382",
"b#	c #837D7A",
"c#	c #817A76",
"d#	c #867C77",
"e#	c #8C827F",
"f#	c #807B7A",
"g#	c #777777",
"h#	c #797A7C",
"i#	c #7F7F80",
"j#	c #878787",
"k#	c #8E8F8F",
"l#	c #A7A7A7",
"m#	c #AFAFAF",
"n#	c #C0C0C0",
"o#	c #C5C5C5",
"p#	c #7F7F7F",
"q#	c #E3E4E4",
"r#	c #C0C0C1",
"s#	c #AAABAB",
"t#	c #A0A1A1",
"u#	c #969798",
"v#	c #8D8E8D",
"w#	c #878889",
"x#	c #858788",
"y#	c #858787",
"z#	c #88898A",
"A#	c #8D8E8E",
"B#	c #959595",
"C#	c #AAAAAA",
"D#	c #C1C1C1",
"E#	c #C7C7C7",
"F#	c #E9E9E9",
"G#	c #BABABA",
"H#	c #B2B2B2",
"I#	c #A6A6A6",
"J#	c #9E9E9E",
"K#	c #9A9A9A",
"L#	c #989898",
"M#	c #9D9D9D",
"N#	c #A1A1A1",
"O#	c #B5B5B5",
"P#	c #C3C3C3",
"Q#	c #C9C9C9",
"R#	c #ADADAD",
"S#	c #8C8C8C",
"T#	c #F2F2F2",
"U#	c #CCCCCC",
"V#	c #B8B8B8",
"W#	c #A8A8A8",
"X#	c #B1B1B1",
"Y#	c #BDBDBD",
"Z#	c #C6C6C6",
"`#	c #CBCBCB",
" $	c #8D8D8D",
".$	c #F4F4F4",
"+$	c #D5D5D5",
"@$	c #B9B9B9",
"#$	c #A9A9A9",
"$$	c #B3B3B3",
"%$	c #8B8B8B",
"&$	c #F0F0F0",
"*$	c #D2D2D2",
"=$	c #ACACAC",
"-$	c #B4B4B4",
";$	c #BBBBBB",
">$	c #CACACA",
",$	c #CDCDCD",
"'$	c #CFCFCF",
")$	c #939393",
"!$	c #D4D4D4",
"~$	c #C4C4C4",
"{$	c #D0D0D0",
"]$	c #979797",
"^$	c #FDFDFD",
"/$	c #DCDCDC",
"($	c #848484",
"_$	c #828282",
":$	c #7C7C7C",
"<$	c #8A8A8A",
"[$	c #929292",
"}$	c #9F9F9F",
"|$	c #A0A0A0",
"1$	c #D6D6D6",
"2$	c #A2A2A2",
"3$	c #888888",
"4$	c #7D7D7D",
"5$	c #797979",
"6$	c #808080",
"7$	c #8E8E8E",
"8$	c #909090",
"9$	c #969696",
"                                                                ",
"                                                              . ",
"                                                            + @ ",
"                                                          # $ % ",
"                                                        # & * = ",
"                                                      - ; > , ' ",
"                                                    ) ! ~ { ] ^ ",
"                                                  / ( _ : < [ } ",
"                                                | 1 2 3 4 5 6 7 ",
"                    8 9 0 a b c d e f g h i j k l m n # o p q r ",
"                s t u v w x y z A B C D E F G H I J K L M N O P ",
"          Q R S T U V W X Y Z `  ...+.@.#.$.%.&.*.=.-.;.>.,.'.).",
"        !.~.{.].^./.(._.:.<.[.}.|.1.2.3.4.5.6.7.8.9.0.a.b.c.d.e.",
"      f.g.h.i.j.k./.l.m.n.o.p.q.r.s.t.u.v.w.x.y.z.A.B.C.D.E.F.G.",
"    H.I.J././.K.L.M.N.O.P.Q.R.) ) ) S.T.U.V.W.X.Y.Z.`. +.+++@+#+",
"    $+/.%+&+*+=+-+;+>+,+'+)+!+) ) ) ~+{+]+^+/+(+_+:+<+[+}+|+1+2+",
"  3+4+5+6+7+8+9+0+a+/.b+c+d+e+) ) ) f+g+h+i+j+k+l+m+n+o+p+q+r+s+",
"  t+u+v+w+x+y+z+A+B+C+D+E+F+G+) ) ) H+I+J+K+L+M+N+O+P+Q+R+S+T+U+",
"  V+W+X+Y+Z+`+ @.@+@@@#@$@%@&@) ) *@=@-@;@>@,@'@)@!@~@{@]@^@/@(@",
"    _@:@<@[@}@|@1@2@3@4@5@6@) ) ) 7@8@9@0@a@b@c@d@e@f@g@h@i@j@k@",
"        l@m@n@o@p@q@r@s@t@u@v@w@x@y@z@A@B@C@D@E@F@G@H@I@J@K@L@M@",
"          N@O@P@Q@R@S@T@U@V@W@X@Y@Z@`@ #.#+#@###$#%#&#*#=#-#;#>#",
"                ,#'#)#!#~#{#]#^#/#(#_#:#<#[#}#|#1#2#;#h@3#4#5#6#",
"                  7#8#9#0#a#b#c#d#e#f#g#h#i#j#k#L@l#m#K@n#o#5#p#",
"                ) q#r#s#t#u#v#w#x#y#z#A#B#L@;#C#m#=#3#D#o#E#j@j#",
"              ) F#(@G#H#I#J#K#K#L#L@M#N#I#j@h@O#G#3#n#P#E#Q#R#S#",
"            ) T#U#-#V#m#5#;#*#*#I#W#C#j@X#O#V#G#Y#D#P#Z#(@`#h@ $",
"          ) .$+$n#@$H##$l#l#l##$R#R#h@$$=#@$Y#-#D#P#Z#(@`#U#m#%$",
"        ) &$*$D#V#X##$W#W#C#=$R#X#-$=#@$;$Y#i@4#o#Z#(@>$,$'$-$)$",
"      ) &$!$P#;$$$=$j@C#j@R#h@X#-$K@@$;$-#n#4#~$E#>$U#U#{$*$K@]$",
"    ^$/$O#;#K# $k@($_$:$($<$[$)$K#}$|$}$5##$j@C#m#-$=#O#@$-#j@B#",
"    F#1$O#2$B#3$p#p#4$5$6$j#7$8$9$L@M#M#2$I#W#W#R#X#$$$$K@@$#$B#"};
