/* XPM */
static char * folder_xpm[] = {
"32 32 21 1",
" 	c None",
".	c #000000",
"+	c #FCFCFC",
"@	c #FFFFE3",
"#	c #EFE1C0",
"$	c #EAD7B2",
"%	c #E0C898",
"&	c #D1B47B",
"*	c #C4A15A",
"=	c #EAEAEA",
"-	c #AAAAAA",
";	c #DBDBDB",
">	c #6D6D6D",
",	c #D3D3D3",
"'	c #C9C9C9",
")	c #C1C1C1",
"!	c #B7B7B7",
"~	c #AFAFAF",
"{	c #A0A0A0",
"]	c #999999",
"^	c #898989",
"                                ",
"                                ",
"                                ",
"                                ",
"                                ",
"                                ",
"                                ",
"............................... ",
".+++++++.++++++++++++++.@#$%&*. ",
".=======+.-------------.@#$%&*. ",
".========+.------------.@#$%&*. ",
".;;;;;;;;;+.>>>>>>>>>>>.@#$%&*. ",
".;;;;;;;;;;+.++++++++++.@#$%&*. ",
".,,,,,,,,,,,+.+++++++++........ ",
".,,,,,,,,,,,,+.+++++++++++>--+. ",
".'''''''''''''+.++++++++++>--+. ",
".''''''''''''''+.+++++++++>--+. ",
".)))))))))))))))+.++++++++>--+. ",
".))))))))))))))))+.+++++++>--+. ",
".!!!!!!!!!!!!!!!!!+.++++++>--+. ",
".!!!!!!!!!!!!!!!!!!+.+++++>--+. ",
".~~~~~~~~~~~~~~~~~~~+.++++>--+. ",
".~~~~~~~~~~~~~~~~~~~~+.+++>--+. ",
".---------------------+.++>--+. ",
".----------------------+.+>--+. ",
".{{{{{{{{{{{{{{{{{{{{{{{+.>--+. ",
".{{{{{{{{{{{{{{{{{{{{{{{{+.--+. ",
".]]]]]]]]]]]]]]]]]]]]]]]]]+.-+. ",
".]]]]]]]]]]]]]]]]]]]]]]]]]]+.+. ",
".^^^^^^^^^^^^^^^^^^^^^^^^^^^+.. ",
"............................... ",
"                                "};
