/* XPM */
static char * next_xpm[] = {
"32 32 24 1",
" 	c None",
".	c #000000",
"+	c #F6F6F6",
"@	c #C19328",
"#	c #BDBDBD",
"$	c #FEFEF7",
"%	c #FEFCCD",
"&	c #FEFBCD",
"*	c #FEFEF5",
"=	c #FDE894",
"-	c #F8CF5F",
";	c #FEFEEF",
">	c #EFC86E",
",	c #AF7400",
"'	c #FEFBD1",
")	c #FEFEED",
"!	c #91640B",
"~	c #B6820C",
"{	c #EFB939",
"]	c #FBDE86",
"^	c #FABF58",
"/	c #F8B351",
"(	c #876924",
"_	c #E8B02E",
"                                ",
"                                ",
"                  ............  ",
"      .           .++++++++++.  ",
"     .@.          .##########.  ",
"    .@$@.     .   ............  ",
"   .@%&*@.   ..                 ",
"  .@%=-&;@. .@.                 ",
" .@%=>,-')@.@%.   ..............",
"  .!~{>,-]%@%^.   ..............",
"   .!~{>,-]{/(.                 ",
"    .!~{>,___(.                 ",
"     .!~{,,,,(.   ........      ",
"      .!_,,,,(.   ........      ",
"     .@%^~~,,(.                 ",
"    .@%^((((((.                 ",
"   ............   ..............",
"                  .++++++++++++.",
"                  .############.",
"                  ..............",
"                                ",
"                                ",
"                  ......        ",
"                  ......        ",
"                                ",
"                                ",
"                  ..........    ",
"                  ..........    ",
"                                ",
"                                ",
"                                ",
"                                "};
