/* XPM */
static char * reload32_xpm[] = {
"32 32 216 2",
"  	c None",
". 	c #5F5F7E",
"+ 	c #9999CC",
"@ 	c #757588",
"# 	c #636380",
"$ 	c #9F9FCF",
"% 	c #AAAAD4",
"& 	c #8585B1",
"* 	c #8F8FBF",
"= 	c #8F8FBE",
"- 	c #929296",
"; 	c #8A8A92",
"> 	c #8E8EBD",
", 	c #83838F",
"' 	c #9595C7",
") 	c #9D9D9E",
"! 	c #99999C",
"~ 	c #C5C5E2",
"{ 	c #8080AB",
"] 	c #B9B9DC",
"^ 	c #9393C3",
"/ 	c #9B9BCD",
"( 	c #9898CB",
"_ 	c #AFAFD7",
": 	c #7C7C8C",
"< 	c #A4A4D2",
"[ 	c #9D9DCE",
"} 	c #CDCDE6",
"| 	c #9696C8",
"1 	c #9393C5",
"2 	c #73739A",
"3 	c #9090BF",
"4 	c #9797CA",
"5 	c #8D8DBC",
"6 	c #9A9ACD",
"7 	c #878791",
"8 	c #78788A",
"9 	c #6E6E85",
"0 	c #A7A7D3",
"a 	c #CACADE",
"b 	c #8C8CBB",
"c 	c #A0A0A9",
"d 	c #9E9ECF",
"e 	c #8484B0",
"f 	c #717196",
"g 	c #A2A2D0",
"h 	c #A0A0D0",
"i 	c #B1B1D8",
"j 	c #A1A1D0",
"k 	c #DCDCEE",
"l 	c #9C9CCD",
"m 	c #616181",
"n 	c #B0B0D8",
"o 	c #9292C3",
"p 	c #959597",
"q 	c #606080",
"r 	c #9494C5",
"s 	c #8A8AB8",
"t 	c #9E9ECE",
"u 	c #9898CA",
"v 	c #B5B5DA",
"w 	c #94949B",
"x 	c #D1D1E8",
"y 	c #BABADC",
"z 	c #9898AB",
"A 	c #7F7FA9",
"B 	c #9B9BAD",
"C 	c #666681",
"D 	c #636383",
"E 	c #636384",
"F 	c #C1C1D3",
"G 	c #ABABAF",
"H 	c #6E6E92",
"I 	c #A5A5AC",
"J 	c #93939A",
"K 	c #B7B7DB",
"L 	c #9494A5",
"M 	c #9C9C9D",
"N 	c #6F6F87",
"O 	c #9797C9",
"P 	c #98989C",
"Q 	c #A3A3CB",
"R 	c #C2C2D4",
"S 	c #8989A6",
"T 	c #8E8EA4",
"U 	c #ACACD6",
"V 	c #C6C6E2",
"W 	c #C2C2E1",
"X 	c #97979D",
"Y 	c #8686AB",
"Z 	c #9797B3",
"` 	c #8E8E94",
" .	c #747498",
"..	c #A0A0A3",
"+.	c #C2C2E0",
"@.	c #8989B7",
"#.	c #74749B",
"$.	c #7D7DA7",
"%.	c #7979A1",
"&.	c #7878A0",
"*.	c #B6B6DA",
"=.	c #B3B3D9",
"-.	c #6E6E86",
";.	c #9393AA",
">.	c #A0A0B6",
",.	c #72728B",
"'.	c #A4A4B8",
").	c #707095",
"!.	c #656584",
"~.	c #8A8A95",
"{.	c #9191C2",
"].	c #9898B8",
"^.	c #9B9B9D",
"/.	c #DBDBED",
"(.	c #7C7CA5",
"_.	c #C2C2CD",
":.	c #8383A9",
"<.	c #6F6F94",
"[.	c #9797AA",
"}.	c #9898C2",
"|.	c #A3A3AB",
"1.	c #77779F",
"2.	c #D0D0E1",
"3.	c #9C9CAA",
"4.	c #B1B1CB",
"5.	c #80808D",
"6.	c #9F9FAC",
"7.	c #BBBBC3",
"8.	c #969698",
"9.	c #8A8AB5",
"0.	c #CECEE7",
"a.	c #D9D9EC",
"b.	c #9292A8",
"c.	c #94949C",
"d.	c #7E7EA4",
"e.	c #9B9BA7",
"f.	c #8484AF",
"g.	c #6E6E8F",
"h.	c #C1C1CD",
"i.	c #A5A5D2",
"j.	c #7F7F90",
"k.	c #949498",
"l.	c #D7D7EB",
"m.	c #BABAC9",
"n.	c #7D7D8D",
"o.	c #77778F",
"p.	c #919197",
"q.	c #9E9EB2",
"r.	c #B4B4D6",
"s.	c #9393C4",
"t.	c #C1C1E0",
"u.	c #717197",
"v.	c #9898B1",
"w.	c #A3A3D1",
"x.	c #A6A6B9",
"y.	c #8D8D99",
"z.	c #CDCDDC",
"A.	c #9292B5",
"B.	c #9292A9",
"C.	c #6A6A8D",
"D.	c #A2A2AB",
"E.	c #D5D5EA",
"F.	c #BDBDDE",
"G.	c #8B8BBA",
"H.	c #92929F",
"I.	c #9B9BA1",
"J.	c #9292C2",
"K.	c #B0B0C8",
"L.	c #8A8A9B",
"M.	c #9191BD",
"N.	c #8888B5",
"O.	c #909097",
"P.	c #8181AC",
"Q.	c #8D8D96",
"R.	c #98989B",
"S.	c #A9A9D4",
"T.	c #CACAE5",
"U.	c #8B8B99",
"V.	c #7E7EA5",
"W.	c #6F6F95",
"X.	c #C3C3E1",
"Y.	c #8888B6",
"Z.	c #6E6E93",
"`.	c #9696AB",
" +	c #7A7AA2",
".+	c #A5A5A8",
"++	c #ACACC9",
"@+	c #ADADB6",
"#+	c #BEBED5",
"$+	c #CFCFDE",
"%+	c #ACACB2",
"&+	c #838398",
"*+	c #747496",
"=+	c #D6D6EB",
"-+	c #C7C7D6",
";+	c #737399",
">+	c #76769B",
",+	c #83839B",
"'+	c #A6A6C6",
")+	c #C0C0DF",
"!+	c #B6B6DB",
"~+	c #717187",
"{+	c #BFBFDF",
"]+	c #A9A9BA",
"^+	c #8383AF",
"/+	c #666688",
"(+	c #C6C6D3",
"_+	c #C4C4E2",
":+	c #C5C5CF",
"<+	c #9191C1",
"[+	c #A4A4D1",
"}+	c #8282AD",
"|+	c #656587",
"1+	c #97979A",
"2+	c #A1A1AA",
"3+	c #919198",
"                                                                ",
"                                                                ",
"                        I.            )                         ",
"                G 7.-+v ;.            :+a c                     ",
"          ^.F k k l.+.e Q.          ../.} _ q.                  ",
"            6.r.y i ^ /+;           R 0.K 0 j ].                ",
"              K.0 ^ A . `         |.{+!+j t $ s.L               ",
"            h.T.3 H D .           v.* b J.u l | 9.X             ",
"          _.=+t . @ @ .             y. .{ <+( / > S             ",
"        %+E.i m @     ,               3+>+^+o 6 r P.w           ",
"        a ~ (.# p                       J V.s | u & ,+          ",
"      @+} S.q :                           H.@.1 + s *+          ",
"      #+_+5 . -                             A.' + b <.p.        ",
"    M t.*.$.#                               [.6 [ > ).~.        ",
"    D.F.% &.9                               ! h h = f j.        ",
"    ]+] i. +-.                                Q < * Z.n.        ",
"    x.=.[+{ ,.                                '+% * C.:         ",
"    '._ < N.g.                                ++n 5 E ,         ",
"    >.% w.> ;+k.                              4.v & . ;         ",
"    e.< g ' { L.                              )+n 2 #           ",
"    ! $ $ + * :.                            I ~ $ q @           ",
"      }.+ + + = B.                          m.X.}+. ;           ",
"      `.r 4 / / ' z                       .+x % . 9             ",
"      P M.1 4 [ $ [ B               (+) ) $+W f # -             ",
"        b.G.o ( d g d Z !           a.2.z.} f.. 7               ",
"        R.Y Y.^ + l = 1.&+          ~ V ] ( m ,                 ",
"          c.d.& {.= W.. -         2+] _ O e o.                  ",
"            U.u.%.#.. 8           c U 3 2 |+. N 1+              ",
"              O.!.. # p           3.& . . C 8 7                 ",
"                8.@ :             T ~+5.-                       ",
"                                                                ",
"                                                                "};
