/* XPM */
static char * filesave_xpm[] = {
"32 32 100 2",
"  	c None",
". 	c #000000",
"+ 	c #FCFCFC",
"@ 	c #F2F2F2",
"# 	c #E3E3E3",
"$ 	c #C6C6C6",
"% 	c #AFAFAF",
"& 	c #999999",
"* 	c #FFFFFF",
"= 	c #F9F9F9",
"- 	c #F1F1F1",
"; 	c #EAEAEA",
"> 	c #DADADA",
", 	c #D4D4D4",
"' 	c #CCCCCC",
") 	c #C5C5C5",
"! 	c #BCBCBC",
"~ 	c #B6B6B6",
"{ 	c #A8A8A8",
"] 	c #F6F6F6",
"^ 	c #EDEDED",
"/ 	c #E7E7E7",
"( 	c #E0E0E0",
"_ 	c #D9D9D9",
": 	c #D1D1D1",
"< 	c #CACACA",
"[ 	c #C4C4C4",
"} 	c #BDBDBD",
"| 	c #B5B5B5",
"1 	c #AEAEAE",
"2 	c #A7A7A7",
"3 	c #A1A1A1",
"4 	c #DCDCDC",
"5 	c #D5D5D5",
"6 	c #CDCDCD",
"7 	c #C7C7C7",
"8 	c #C0C0C0",
"9 	c #B9B9B9",
"0 	c #B1B1B1",
"a 	c #ABABAB",
"b 	c #A4A4A4",
"c 	c #9D9D9D",
"d 	c #EEEEEE",
"e 	c #D2D2D2",
"f 	c #C3C3C3",
"g 	c #A0A0A0",
"h 	c #9A9A9A",
"i 	c #EBEBEB",
"j 	c #DDDDDD",
"k 	c #D6D6D6",
"l 	c #CFCFCF",
"m 	c #B3B3B3",
"n 	c #969696",
"o 	c #F7F7F7",
"p 	c #E8E8E8",
"q 	c #939393",
"r 	c #F5F5F5",
"s 	c #E4E4E4",
"t 	c #C8C8C8",
"u 	c #B2B2B2",
"v 	c #ACACAC",
"w 	c #909090",
"x 	c #E8DABA",
"y 	c #EEE3CA",
"z 	c #F7F0DF",
"A 	c #F9F4E8",
"B 	c #F9F5EA",
"C 	c #E3D2A9",
"D 	c #DDC790",
"E 	c #C2C2C2",
"F 	c #F8F1E1",
"G 	c #DDC999",
"H 	c #D8BC7E",
"I 	c #BBBBBB",
"J 	c #B4B4B4",
"K 	c #020202",
"L 	c #EFE5CD",
"M 	c #DAC28A",
"N 	c #D0B26C",
"O 	c #ADADAD",
"P 	c #A6A6A6",
"Q 	c #D8BF86",
"R 	c #E7D9B9",
"S 	c #E2CFA5",
"T 	c #DDC895",
"U 	c #D2B675",
"V 	c #CAA756",
"W 	c #9F9F9F",
"X 	c #989898",
"Y 	c #E2D1A7",
"Z 	c #CDAE66",
"` 	c #C49E46",
" .	c #919191",
"..	c #8A8A8A",
"+.	c #CDAE65",
"@.	c #DCC897",
"#.	c #C7A554",
"$.	c #BE9533",
"%.	c #838383",
"&.	c #7A7A7A",
"                                                                ",
"                                                                ",
"    . . . . . . . . . . . . . . . . . . . . . . . . . . . .     ",
"    . + @ # $ % & & & & & & & & & & & & & & & & + @ # $ % .     ",
"    . + @ # $ % & & & & & & & & & & & & & & & & + @ # $ % .     ",
"    . + @ # $ % . . . . . . . . . . . . . . . . + @ # $ % .     ",
"    . + @ # $ % . * * = - ; # > , ' ) ! ~ % { . + @ # $ % .     ",
"    . + @ # $ % . * ] ^ / ( _ : < [ } | 1 2 3 . + @ # $ % .     ",
"    . + @ # $ % . * ] ^ / ( _ : < [ } | 1 2 3 . + @ # $ % .     ",
"    . + @ # $ % . * ] ^ / ( _ : < [ } | 1 2 3 . + @ # $ % .     ",
"    . + @ # $ % . * - ; # 4 5 6 7 8 9 0 a b c . + @ # $ % .     ",
"    . + @ # $ % . * d / ( _ e < f ! ~ 1 2 g h . + @ # $ % .     ",
"    . + @ # $ % . + i # j k l 7 8 9 m a b c n . + @ # $ % .     ",
"    . + @ # $ % . o p ( _ e 6 [ } ~ 0 { 3 h q . + @ # $ % .     ",
"    . + @ # $ % . r s 4 5 l t 8 9 u v b c n w . + @ # $ % .     ",
"    . + @ # $ % . r s 4 5 l t 8 9 u v b c n w . + @ # $ % .     ",
"    . + @ # $ % . . . . . . . . . . . . . . . . + @ # $ % .     ",
"    . + @ # $ % & & & & & & & & & & & & & & &   + @ # $ % .     ",
"    . + @ # $ % & & & & & & & & & & & & & & & & + @ # $ % .     ",
"    . + @ # $ % & & & & & & & & & & & & & & &   + @ # $ % .     ",
"    . + @ # $ % . . . . . . . . . . . . . . . . + @ # $ % .     ",
"    . + @ # $ % . x y z A B z y x C D . : < E . + @ # $ % .     ",
"    . + @ # $ % . C y z F F y x C G H . E I J . + @ # $ % .     ",
"    . + @ # $ % . G C K K L x C G M N . | O P . + @ # $ % .     ",
"    . + @ # $ % . Q G K K R S T Q U V . P W X . + @ # $ % .     ",
"    . + @ # $ % . U Q K K Y T Q U Z ` . X  .... + @ # $ % .     ",
"    . + @ # $ % . +.U K K @.Q U +.#.$.. ..%.&.. + @ # $ % .     ",
"    . + @ # $ % . +.U Q @.@.Q U +.#.$.. ..%.&.. + @ # $ % .     ",
"    . + @ # $ % . +.U Q @.@.Q U +.#.$.. ..%.&.. + @ # $ % .     ",
"    . . . . . . . . . . . . . . . . . . . . . . . . . . . .     ",
"                                                                ",
"                                                                "};
