/* XPM */
static char * redo_xpm[] = {
"32 32 44 1",
" 	c None",
".	c #040000",
"+	c #EF9802",
"@	c #F4CB84",
"#	c #F2D4A2",
"$	c #F2DDBA",
"%	c #F7E9CF",
"&	c #EFB864",
"*	c #EDA33B",
"=	c #D59B68",
"-	c #E39110",
";	c #DFB716",
">	c #E3AF22",
",	c #E1C12E",
"'	c #D89E65",
")	c #382402",
"!	c #7F5102",
"~	c #A46800",
"{	c #E1B52E",
"]	c #BA9900",
"^	c #633F01",
"/	c #2A0000",
"(	c #A46000",
"_	c #DEAB3F",
":	c #DF812E",
"<	c #C68005",
"[	c #D88359",
"}	c #DC904D",
"|	c #A25700",
"1	c #CC9900",
"2	c #D1680A",
"3	c #964300",
"4	c #D99004",
"5	c #B27203",
"6	c #E0B315",
"7	c #EBB702",
"8	c #E4A600",
"9	c #D99216",
"0	c #E29E0D",
"a	c #000000",
"b	c #DDAB4A",
"c	c #DCAA53",
"d	c #E3B22E",
"e	c #E5A712",
"                                ",
"                                ",
"                                ",
"          ......                ",
"       ...+@#$#+..              ",
"     ..+@#$$$$$$%+..            ",
"    .+@$$#&&&&&#$#%+..          ",
"   .+@$#&&&***&&&=#$%+.       . ",
"   .@$#&&*******&&&@$%+.     .. ",
"  .+$#&**-;>,,,;**&@@$%+.   .+. ",
"  .$'&**)!!!!!!~{*&]&@$%+. .+%. ",
"  )#&**)^/.....^^(*;]&@$%+.+%@. ",
" .$&**)^..     ..^!(_]&:@%<%@[. ",
" .#**)^.         ..!(_]&}}%@[<. ",
" .&*)^.            .^|_]111&2!. ",
" .*!)^.             .^3{1&&&45. ",
" .*)^.               .^6711185. ",
" .^)^.              .!%@999905. ",
"  a)^a             .!%@bcdee05. ",
"  a^)^a           .!%@<555555!. ",
"   a)^a          .............. ",
"   a^)^a                        ",
"    a))^a                       ",
"     a^)^a                      ",
"      a))^a                     ",
"       aa)^aa                   ",
"         aaa^aa                 ",
"            aaaaa               ",
"                                ",
"                                ",
"                                ",
"                                "};
