/* XPM */
static char * undo_xpm[] = {
"32 32 44 1",
" 	c None",
".	c #040000",
"+	c #EF9802",
"@	c #F2D4A2",
"#	c #F2DDBA",
"$	c #F4CB84",
"%	c #F7E9CF",
"&	c #EFB864",
"*	c #D59B68",
"=	c #EDA33B",
"-	c #DFB716",
";	c #E1C12E",
">	c #E3AF22",
",	c #E39110",
"'	c #BA9900",
")	c #E1B52E",
"!	c #A46800",
"~	c #7F5102",
"{	c #382402",
"]	c #D89E65",
"^	c #A46000",
"/	c #633F01",
"(	c #2A0000",
"_	c #D88359",
":	c #C68005",
"<	c #DF812E",
"[	c #DEAB3F",
"}	c #DC904D",
"|	c #D1680A",
"1	c #CC9900",
"2	c #A25700",
"3	c #B27203",
"4	c #D99004",
"5	c #964300",
"6	c #E4A600",
"7	c #EBB702",
"8	c #E0B315",
"9	c #E29E0D",
"0	c #D99216",
"a	c #E5A712",
"b	c #E3B22E",
"c	c #DCAA53",
"d	c #DDAB4A",
"e	c #000000",
"                                ",
"                                ",
"                                ",
"                ......          ",
"              ..+@#@$+...       ",
"            ..+%######@$+..     ",
"          ..+%@#@&&&&&@##$+.    ",
" .       .+%#@*&&&===&&&@#$+.   ",
" ..     .+%#$&&&=======&&@#$.   ",
" .+.   .+%#$$&==-;;;>-,==&@#+.  ",
" .%+. .+%#$&'&=)!~~~~~~{==&]#.  ",
" .$%+.+%#$&'-=^//.....(/{==&@{  ",
" ._$%:%$<&'[^~/..     ../{==&#. ",
" .:_$%}}&'[^~..         ./{==@. ",
" .~|&111'[2/.            ./{=&. ",
" .34&&&1)5/.             ./{~=. ",
" .3611178/.               ./{=. ",
" .390000$%~.              ./{/. ",
" .39aabcd$%~.             e/{e  ",
" .~333333:$%~.           e/{/e  ",
" ..............          e/{e   ",
"                        e/{/e   ",
"                       e/{{e    ",
"                      e/{/e     ",
"                     e/{{e      ",
"                   ee/{ee       ",
"                 ee/eee         ",
"               eeeee            ",
"                                ",
"                                ",
"                                ",
"                                "};
